<mxfile host="app.diagrams.net" modified="2022-03-29T04:50:20.792Z" agent="5.0 (Windows NT 10.0; Win64; x64) AppleWebKit/537.36 (KHTML, like Gecko) Chrome/99.0.4844.82 Safari/537.36" etag="gwiFxuhaUG8wRrpnnQqD" version="17.2.4" type="github">
  <diagram id="NcoY_xX9pSgn1Li-ol0K" name="Page-1">
    <mxGraphModel dx="2062" dy="1065" grid="1" gridSize="10" guides="1" tooltips="1" connect="1" arrows="1" fold="1" page="1" pageScale="1" pageWidth="827" pageHeight="1169" math="0" shadow="0">
      <root>
        <mxCell id="0" />
        <mxCell id="1" parent="0" />
        <mxCell id="wIqcMvWtxj24aQTZgoBh-1" value="&lt;h1&gt;&lt;br&gt;&lt;/h1&gt;" style="rounded=0;whiteSpace=wrap;html=1;" parent="1" vertex="1">
          <mxGeometry x="60" y="50" width="600" height="150" as="geometry" />
        </mxCell>
        <mxCell id="wIqcMvWtxj24aQTZgoBh-2" value="&lt;h1&gt;Art Competation&lt;/h1&gt;&lt;h1&gt;&lt;br&gt;&lt;/h1&gt;&lt;div&gt;&lt;span lang=&quot;EN-US&quot; style=&quot;font-size: 10.0pt ; line-height: 107% ; font-family: &amp;#34;arial&amp;#34; , sans-serif&quot;&gt;brief&lt;br/&gt;instructions : how to use page and submission form&lt;/span&gt;&lt;br&gt;&lt;/div&gt;&lt;p&gt;&lt;br&gt;&lt;/p&gt;" style="text;html=1;strokeColor=none;fillColor=none;spacing=5;spacingTop=-20;whiteSpace=wrap;overflow=hidden;rounded=0;" parent="1" vertex="1">
          <mxGeometry x="220" y="50" width="280" height="140" as="geometry" />
        </mxCell>
        <mxCell id="wIqcMvWtxj24aQTZgoBh-3" value="" style="whiteSpace=wrap;html=1;aspect=fixed;" parent="1" vertex="1">
          <mxGeometry x="60" y="200" width="400" height="400" as="geometry" />
        </mxCell>
        <mxCell id="wIqcMvWtxj24aQTZgoBh-4" value="" style="rounded=0;whiteSpace=wrap;html=1;" parent="1" vertex="1">
          <mxGeometry x="460" y="200" width="200" height="400" as="geometry" />
        </mxCell>
        <mxCell id="wIqcMvWtxj24aQTZgoBh-9" value="&lt;h1&gt;Drawing control&lt;/h1&gt;&lt;p&gt;canvas shape:&lt;/p&gt;&lt;p&gt;&amp;nbsp;lines,&amp;nbsp;&lt;/p&gt;&lt;p&gt;circles,&amp;nbsp;&lt;/p&gt;&lt;p&gt;rectangles&lt;/p&gt;&lt;p&gt;&lt;br&gt;&lt;/p&gt;&lt;p&gt;&lt;br&gt;&lt;/p&gt;&lt;p&gt;&lt;br&gt;&lt;/p&gt;&lt;p&gt;&lt;br&gt;&lt;/p&gt;&lt;p&gt;&lt;br&gt;&lt;/p&gt;&lt;p&gt;size&lt;/p&gt;&lt;p&gt;position&lt;/p&gt;&lt;p&gt;color&lt;/p&gt;&lt;p&gt;fill color&lt;/p&gt;" style="text;html=1;strokeColor=none;fillColor=none;spacing=5;spacingTop=-20;whiteSpace=wrap;overflow=hidden;rounded=0;" parent="1" vertex="1">
          <mxGeometry x="465" y="210" width="190" height="120" as="geometry" />
        </mxCell>
        <mxCell id="wIqcMvWtxj24aQTZgoBh-11" value="save" style="text;html=1;strokeColor=none;fillColor=none;align=center;verticalAlign=middle;whiteSpace=wrap;rounded=0;" parent="1" vertex="1">
          <mxGeometry x="480" y="500" width="60" height="30" as="geometry" />
        </mxCell>
        <mxCell id="wIqcMvWtxj24aQTZgoBh-12" value="clear" style="text;html=1;strokeColor=none;fillColor=none;align=center;verticalAlign=middle;whiteSpace=wrap;rounded=0;" parent="1" vertex="1">
          <mxGeometry x="560" y="500" width="60" height="30" as="geometry" />
        </mxCell>
        <mxCell id="wIqcMvWtxj24aQTZgoBh-13" value="" style="rounded=0;whiteSpace=wrap;html=1;" parent="1" vertex="1">
          <mxGeometry x="60" y="600" width="600" height="180" as="geometry" />
        </mxCell>
        <mxCell id="wIqcMvWtxj24aQTZgoBh-15" value="&lt;h1&gt;Submission Form&lt;/h1&gt;&lt;p&gt;username&amp;nbsp; email&amp;nbsp; password confimed-pwd&amp;nbsp;&lt;span&gt;phone&lt;/span&gt;&lt;/p&gt;attached image&lt;br&gt;&lt;p&gt;submit reset&lt;/p&gt;&lt;p&gt;ps. form data validate&amp;nbsp; &amp;nbsp;successfully submission&lt;/p&gt;&lt;p&gt;&lt;br&gt;&lt;/p&gt;" style="text;html=1;strokeColor=none;fillColor=none;spacing=5;spacingTop=-20;whiteSpace=wrap;overflow=hidden;rounded=0;" parent="1" vertex="1">
          <mxGeometry x="100" y="620" width="360" height="150" as="geometry" />
        </mxCell>
        <mxCell id="wIqcMvWtxj24aQTZgoBh-17" value="Footer" style="rounded=0;whiteSpace=wrap;html=1;" parent="1" vertex="1">
          <mxGeometry x="60" y="780" width="600" height="50" as="geometry" />
        </mxCell>
        <mxCell id="wIqcMvWtxj24aQTZgoBh-20" value="Language&lt;br&gt;ps:color change&amp;nbsp;" style="text;html=1;strokeColor=none;fillColor=none;align=center;verticalAlign=middle;whiteSpace=wrap;rounded=0;" parent="1" vertex="1">
          <mxGeometry x="510" y="60" width="120" height="30" as="geometry" />
        </mxCell>
      </root>
    </mxGraphModel>
  </diagram>
</mxfile>
